<svg width="110" height="110" viewBox="0 0 110 110" fill="none" xmlns="http://www.w3.org/2000/svg">
<path d="M46.4062 0H63.5938C66.4512 0 68.75 2.29883 68.75 5.15625V41.25H87.5918C91.416 41.25 93.3281 45.8691 90.6211 48.5762L57.9434 81.2754C56.332 82.8867 53.6895 82.8867 52.0781 81.2754L19.3574 48.5762C16.6504 45.8691 18.5625 41.25 22.3867 41.25H41.25V5.15625C41.25 2.29883 43.5488 0 46.4062 0ZM110 80.7812V104.844C110 107.701 107.701 110 104.844 110H5.15625C2.29883 110 0 107.701 0 104.844V80.7812C0 77.9238 2.29883 75.625 5.15625 75.625H36.6738L47.2012 86.1523C51.5195 90.4707 58.4805 90.4707 62.7988 86.1523L73.3262 75.625H104.844C107.701 75.625 110 77.9238 110 80.7812ZM83.3594 99.6875C83.3594 97.3242 81.4258 95.3906 79.0625 95.3906C76.6992 95.3906 74.7656 97.3242 74.7656 99.6875C74.7656 102.051 76.6992 103.984 79.0625 103.984C81.4258 103.984 83.3594 102.051 83.3594 99.6875ZM97.1094 99.6875C97.1094 97.3242 95.1758 95.3906 92.8125 95.3906C90.4492 95.3906 88.5156 97.3242 88.5156 99.6875C88.5156 102.051 90.4492 103.984 92.8125 103.984C95.1758 103.984 97.1094 102.051 97.1094 99.6875Z" fill="white"/>
</svg>
