<svg width="17" height="16" viewBox="0 0 17 16" fill="none" xmlns="http://www.w3.org/2000/svg">
<path d="M13.07 16H2.07001C1.53957 16 1.03087 15.7893 0.655794 15.4142C0.280721 15.0391 0.0700073 14.5304 0.0700073 14V3C0.0700073 2.46957 0.280721 1.96086 0.655794 1.58579C1.03087 1.21071 1.53957 1 2.07001 1H6.07001V3H2.07001V14H13.07V10H15.07V14C15.07 14.5304 14.8593 15.0391 14.4842 15.4142C14.1091 15.7893 13.6004 16 13.07 16ZM7.77001 9.707L6.36001 8.293L12.653 2H9.07001V0H16.07V7H14.07V3.415L7.77001 9.707Z" fill="#B5B5B5"/>
</svg>
